<svg width="16" height="16" viewBox="0 0 16 16" fill="none" xmlns="http://www.w3.org/2000/svg"><path d="M13.8909 2.99447a3.666639 3.666639 0 0 0-1.1898-.79528c-.4449-.18437-.9219-.27927-1.4035-.27927-.4817 0-.9586.0949-1.40361.27927a3.666831 3.666831 0 0 0-1.18977.79528l-.70666.70667-.70667-.70667c-.68779-.68779-1.62064-1.07419-2.59333-1.07419-.97269 0-1.90554.3864-2.59334 1.07419-.68779.6878-1.07419 1.62065-1.07419 2.59334 0 .97268.3864 1.90553 1.07419 2.59333l.70667.70667 5.18667 5.18669 5.18664-5.18669.7067-.70667c.3407-.3405.6109-.74479.7953-1.18976.1843-.44498.2792-.92192.2792-1.40357 0-.48166-.0949-.9586-.2792-1.40357-.1844-.44498-.4546-.84926-.7953-1.18977Z" fill="#2D3440"/></svg>