<svg width="32" height="32" viewBox="0 0 32 32" fill="none" xmlns="http://www.w3.org/2000/svg"><g fill="#2D3440"><path d="M16 0a8.0094 8.0094 0 0 0-7.9435 7.0588H8V22.946h16V7.0589h-.0565A8.0097 8.0097 0 0 0 16 0Zm6.1176 21.0635H9.8824v-8.6776a1.6853 1.6853 0 0 0 1.4494.6023c1.2141 0 2.0047-.6776 2.0047-1.5341v-.8188a.808.808 0 0 1 .2023-.6278.809.809 0 0 1 .9322-.1985.8094.8094 0 0 1 .4749.8263v3.0965a1.759 1.759 0 0 0 .6098 1.3104 1.7605 1.7605 0 0 0 1.3855.4119 1.7503 1.7503 0 0 0 1.9953-1.647v-2.08a1.2703 1.2703 0 0 1 1.2659-1.3799 1.2696 1.2696 0 0 1 .9362.4117 1.2704 1.2704 0 0 1 .3296.9682.3869.3869 0 0 0 0 .0847 1.0636 1.0636 0 0 0 .6306.8376V21.12l.0188-.0565ZM14.5882 30.5882A1.412 1.412 0 0 0 16 32a1.4118 1.4118 0 0 0 1.4118-1.4118v-6.7011h-2.8236v6.7011Z"/></g></svg>