<svg width="32" height="32" viewBox="0 0 32 32" fill="none" xmlns="http://www.w3.org/2000/svg"><g fill="#2D3440"><path d="M19.1889 5.0695c0-1.3445-.4917-2.634-1.3668-3.5847C16.9469.5341 15.7599 0 14.5222 0c-1.2376 0-2.4246.5341-3.2998 1.4848-.8751.9507-1.3668 2.2402-1.3668 3.5847v14.7548C8.6592 21.1507 7.9926 22.936 8 24.793c-.0032 1.1893.2653 2.3608.7816 3.4096.5162 1.0488 1.264 1.9419 2.1763 2.5994.9122.6575 1.9605 1.0587 3.0506 1.1677 1.0902.1091 2.1883-.0776 3.1957-.5431s1.8927-1.1954 2.5766-2.1241c.6838-.9288 1.1447-2.0274 1.3414-3.1973.1967-1.17.123-2.3746-.2144-3.506-.3375-1.1314-.9281-2.1541-1.719-2.9764V5.0695Zm.167 19.7235c.0094.8795-.1883 1.7469-.5744 2.5201-.386.7731-.9475 1.4262-1.6312 1.8973-.6838.471-1.467.7445-2.2753.7943-.8083.0497-1.615-.1257-2.3433-.5098-.7284-.3841-1.3543-.9641-1.8183-1.6848-.464-.7208-.7507-1.5584-.833-2.4334-.0822-.875.0429-1.7582.3633-2.566.3204-.8077.8255-1.5131 1.4674-2.0491V5.0695c0-.81.2962-1.5867.8234-2.1594.5272-.5727 1.2422-.8944 1.9877-.8944.7456 0 1.4606.3217 1.9878.8944.5272.5727.8234 1.3495.8234 2.1594V20.57c.6261.474 1.1372 1.1057 1.4894 1.8412.3523.7354.5352 1.5527.5331 2.3817Z"/><path d="M15.5335 21.6384V5.14c0-.2673-.0977-.5236-.2717-.7126-.174-.189-.41-.2952-.6561-.2952-.246 0-.482.1061-.656.2952-.174.189-.2717.4453-.2717.7126v16.4984c-.619.2378-1.1408.7056-1.473 1.3208-.3322.6152-.4535 1.3382-.3425 2.0411.1111.703.4473 1.3407.9493 1.8004.5019.4598 1.1374.7119 1.7939.7119.6566 0 1.292-.2521 1.794-.7119.502-.4597.8382-1.0974.9492-1.8004.1111-.7029-.0102-1.4259-.3424-2.0411-.3323-.6152-.854-1.083-1.473-1.3208ZM26.6667 3.9407h-5.5666v2.0157h5.5666V3.9407ZM26.6667 7.972h-5.5666v2.0157h5.5666V7.9722ZM26.6667 12.0034h-5.5666v2.0157h5.5666v-2.0157ZM26.6667 16.0348h-5.5666v2.0157h5.5666v-2.0157Z"/></g></svg>