<svg width="16" height="16" viewBox="0 0 16 16" fill="none" xmlns="http://www.w3.org/2000/svg"><g clip-path="url(#a)"><path fill-rule="evenodd" clip-rule="evenodd" d="M1.6153 1.6153a.9619.9619 0 0 1 .6803-.282h8.9588a.6667.6667 0 1 0 0-1.3333H2.2956C1.6866 0 1.1027.242.6723.6727A2.2966 2.2966 0 0 0 0 2.2962v11.4071c0 .6089.2418 1.1929.6723 1.6236a2.2954 2.2954 0 0 0 1.6233.6726h11.4022a2.2955 2.2955 0 0 0 2.2955-2.2962V7.9998a.6666.6666 0 1 0-1.3333 0v5.7035a.9621.9621 0 0 1-.9622.9629H2.2956a.962.962 0 0 1-.6803-.2819.9633.9633 0 0 1-.282-.681V2.2963a.9633.9633 0 0 1 .282-.681Zm14.2013.3251a.6667.6667 0 1 0-.968-.917L7.614 8.6604 5.7824 6.727a.6667.6667 0 0 0-.968.917L7.13 10.0882a.6667.6667 0 0 0 .968 0l7.7186-8.1479Z" fill="#2D3440"/></g><defs><clipPath id="a"><path fill="#fff" d="M0 0h16v16H0z"/></clipPath></defs></svg>