<svg width="16" height="17" viewBox="0 0 16 17" fill="none" xmlns="http://www.w3.org/2000/svg"><path fill-rule="evenodd" clip-rule="evenodd" d="M2.6633 8.188c0-2.5774 2.0893-4.6667 4.6667-4.6667 2.5773 0 4.6666 2.0893 4.6666 4.6666 0 1.2573-.4972 2.3985-1.3057 3.2376a.6699.6699 0 0 0-.1234.1234c-.8392.8085-1.9803 1.3057-3.2375 1.3057-2.5774 0-4.6667-2.0893-4.6667-4.6667Zm8.4118 4.6879a5.9747 5.9747 0 0 1-3.7451 1.312c-3.3137 0-6-2.6862-6-6 0-3.3137 2.6863-6 6-6s6 2.6863 6 6a5.9748 5.9748 0 0 1-1.3121 3.7452l2.4501 2.4501a.6666.6666 0 0 1 0 .9428.6666.6666 0 0 1-.9428 0l-2.4501-2.4501Z" fill="#2D3440"/></svg>